# xmcd
#
# Track frame offsets:
#	150
#	12505
#	30162
#	40937
#	52939
#	64217
#	77392
#	93290
#	103430
#	112802
#	127115
#	141285
#	154370
#	162510
#	178017
#	188059
#	198557
#	209542
#	218532
#
# Disc length: 3104 seconds
#
# Revision: 2
# Processed by: cddbd v1.4b41PL2 Copyright (c) Steve Scherf et al.
# Submitted via: EZCDDA 4.3.2
#
DISCID=0a0c1e13
DTITLE=Swingin' Haymakers - For Rent
DYEAR=1900
DGENRE=
TTITLE0=Who shot Sam?
TTITLE1=Half Kansas Moon
TTITLE2=Savin' my love
TTITLE3=In the night
TTITLE4=Don't ever leave me again
TTITLE5=Rockin' good way
TTITLE6=Sin City
TTITLE7=Rancherita
TTITLE8=There he goes
TTITLE9=Hickory wind
TTITLE10=Hands off of him
TTITLE11=Two more bottles of wine
TTITLE12=For rent
TTITLE13=Let me explain
TTITLE14=Montana cowgirl
TTITLE15=Gotta lotta rhythm
TTITLE16=Gulf coast highway
TTITLE17=Cool love
TTITLE18=Sleepwalk
EXTD=
EXTT0=
EXTT1=
EXTT2=
EXTT3=
EXTT4=
EXTT5=
EXTT6=
EXTT7=
EXTT8=
EXTT9=
EXTT10=
EXTT11=
EXTT12=
EXTT13=
EXTT14=
EXTT15=
EXTT16=
EXTT17=
EXTT18=
PLAYORDER=
